<?xml version="1.0" encoding="utf-8"?>
<!-- Generator: Adobe Illustrator 19.2.0, SVG Export Plug-In . SVG Version: 6.00 Build 0)  -->
<svg version="1.1" xmlns="http://www.w3.org/2000/svg" xmlns:xlink="http://www.w3.org/1999/xlink" x="0px" y="0px"
	 viewBox="0 0 168.5 271.6" style="enable-background:new 0 0 168.5 271.6;" xml:space="preserve">
<style type="text/css">
	.st0{fill:#E5403C;}
	.st1{fill:none;stroke:#FFFFFF;stroke-width:12;stroke-linejoin:round;stroke-miterlimit:10;}
	.st2{fill:none;stroke:#FFFFFF;stroke-width:7;stroke-miterlimit:10;}
	.st3{fill:#FFFFFF;}
	.st4{fill:none;}
	.st5{clip-path:url(#SVGID_2_);}
	.st6{clip-path:url(#SVGID_4_);}
</style>
<g id="Laag_1">
</g>
<g id="Happy_Sun">
</g>
<g id="Jumping_man">
</g>
<g id="Roller_coaster">
	<g>
		<g>
			<path class="st3" d="M48,87.7c2,0,3,1,3,3v11.2c0,1.9-1,3-3,3H22.8c-1.9,0-3,1-3,3v3.2c0,1.9,1.1,3,3,3h16.5c2,0,3,1,3,3v11.2
				c0,1.9-1,3-3,3H22.8c-1.9,0-3,1-3,3v20.4c0,1.9-1,3-3,3H5c-1.9,0-3-1.1-3-3v-64c0-2,1.1-3,3-3H48z"/>
			<path class="st3" d="M70.6,87.7c2,0,3,1,3,3v39.2c0,7.7,0.5,12.4,7.9,12.4s7.9-4.7,7.9-12.4V90.7c0-2,1.1-3,3-3h11.2c2,0,3,1,3,3
				v44.5c0,6.6-1.4,24.3-25.1,24.3c-23.7,0-25.1-17.7-25.1-24.3V90.7c0-2,1.1-3,3-3H70.6z"/>
			<path class="st3" d="M133.7,87.7c1.7,0,2.8,0.7,3.5,2.3l13.6,33.3c0.4,0.9,1.2,0.7,1.2-0.3V90.7c0-2,1.1-3,3-3h11.2c2,0,3,1,3,3
				v64c0,1.9-1,3-3,3h-14.7c-1.7,0-2.8-0.7-3.5-2.3l-13.6-33.3c-0.4-0.9-1.2-0.7-1.2,0.3v32.3c0,1.9-1,3-3,3H119c-1.9,0-3-1.1-3-3
				v-64c0-2,1.1-3,3-3H133.7z"/>
		</g>
		<g>
			<path class="st3" d="M29.9,271.6c-0.8,0.8-1.7,0.8-2.5,0l-2.2-2.2c-0.2-0.2-0.5-0.3-0.8-0.2c-1.8,0.6-4,1-6.5,1
				c-14,0-14.8-10.4-14.8-14.3v-14.8c0-3.9,0.8-14.3,14.8-14.3s14.8,10.4,14.8,14.3v14.8c0,1.2-0.1,3.1-0.6,5
				c-0.1,0.4,0,0.6,0.2,0.8l2.7,2.8c0.8,0.8,0.7,1.7-0.1,2.5L29.9,271.6z M13.2,252.8c0,4.5,0.3,7.3,4.7,7.3c4.4,0,4.7-2.8,4.7-7.3
				v-8.5c0-4.5-0.3-7.3-4.7-7.3c-4.4,0-4.7,2.8-4.7,7.3V252.8z"/>
			<path class="st3" d="M46.2,227.9c1.2,0,1.8,0.6,1.8,1.8v23.1c0,4.5,0.3,7.3,4.7,7.3s4.7-2.8,4.7-7.3v-23.1c0-1.2,0.6-1.8,1.8-1.8
				h6.6c1.2,0,1.8,0.6,1.8,1.8v26.3c0,3.9-0.8,14.3-14.8,14.3s-14.8-10.4-14.8-14.3v-26.3c0-1.2,0.6-1.8,1.8-1.8H46.2z"/>
			<path class="st3" d="M99.5,227.9c1.2,0,1.8,0.6,1.8,1.8v6.6c0,1.1-0.6,1.8-1.8,1.8H85.2c-1.1,0-1.8,0.6-1.8,1.8v1.9
				c0,1.1,0.6,1.8,1.8,1.8h9.1c1.2,0,1.8,0.6,1.8,1.8v6.6c0,1.1-0.6,1.8-1.8,1.8h-9.1c-1.1,0-1.8,0.6-1.8,1.8v1.9
				c0,1.1,0.6,1.8,1.8,1.8h14.3c1.2,0,1.8,0.6,1.8,1.8v6.6c0,1.2-0.6,1.8-1.8,1.8H74.7c-1.1,0-1.8-0.6-1.8-1.8v-37.8
				c0-1.2,0.6-1.8,1.8-1.8H99.5z"/>
			<path class="st3" d="M113.8,227.9c1.2,0,1.8,0.6,1.8,1.8v23.1c0,4.5,0.3,7.3,4.7,7.3c4.4,0,4.7-2.8,4.7-7.3v-23.1
				c0-1.2,0.6-1.8,1.8-1.8h6.6c1.2,0,1.8,0.6,1.8,1.8v26.3c0,3.9-0.8,14.3-14.8,14.3s-14.8-10.4-14.8-14.3v-26.3
				c0-1.2,0.6-1.8,1.8-1.8H113.8z"/>
			<path class="st3" d="M167.2,227.9c1.2,0,1.8,0.6,1.8,1.8v6.6c0,1.1-0.6,1.8-1.8,1.8h-14.3c-1.1,0-1.8,0.6-1.8,1.8v1.9
				c0,1.1,0.6,1.8,1.8,1.8h9.1c1.2,0,1.8,0.6,1.8,1.8v6.6c0,1.1-0.6,1.8-1.8,1.8h-9.1c-1.1,0-1.8,0.6-1.8,1.8v1.9
				c0,1.1,0.6,1.8,1.8,1.8h14.3c1.2,0,1.8,0.6,1.8,1.8v6.6c0,1.2-0.6,1.8-1.8,1.8h-24.8c-1.1,0-1.8-0.6-1.8-1.8v-37.8
				c0-1.2,0.6-1.8,1.8-1.8H167.2z"/>
		</g>
		<g>
			<path class="st3" d="M10.8,172.3c1.2,0,1.7,0.6,1.7,1.7v37.1c0,1.1-0.6,1.7-1.7,1.7H4.4c-1.1,0-1.7-0.6-1.7-1.7V174
				c0-1.2,0.6-1.7,1.7-1.7H10.8z"/>
			<path class="st3" d="M28.6,172.3c1,0,1.6,0.4,2,1.3l7.9,19.3c0.2,0.5,0.7,0.4,0.7-0.2V174c0-1.2,0.6-1.7,1.7-1.7h6.5
				c1.2,0,1.7,0.6,1.7,1.7v37.1c0,1.1-0.6,1.7-1.7,1.7h-8.5c-1,0-1.6-0.4-2-1.3L29,192.2c-0.2-0.5-0.7-0.4-0.7,0.2v18.7
				c0,1.1-0.6,1.7-1.7,1.7H20c-1.1,0-1.7-0.6-1.7-1.7V174c0-1.2,0.6-1.7,1.7-1.7H28.6z"/>
			<path class="st3" d="M81.7,184c0-1.2-0.6-1.7-1.7-1.7h-8.1c-1.1,0-1.7-0.6-1.7-1.7V174c0-1.2,0.6-1.7,1.7-1.7h29.7
				c1.2,0,1.7,0.6,1.7,1.7v6.5c0,1.1-0.6,1.7-1.7,1.7h-8.1c-1.1,0-1.7,0.6-1.7,1.7v27.2c0,1.1-0.6,1.7-1.7,1.7h-6.5
				c-1.1,0-1.7-0.6-1.7-1.7V184z"/>
			<path class="st3" d="M115,172.3c1.1,0,1.7,0.6,1.7,1.7v14.5c0,1.1,0.6,1.7,1.7,1.7h5.6c1.2,0,1.7-0.6,1.7-1.7V174
				c0-1.1,0.6-1.7,1.7-1.7h6.5c1.2,0,1.7,0.6,1.7,1.7v37.1c0,1.1-0.6,1.7-1.7,1.7h-6.5c-1.1,0-1.7-0.6-1.7-1.7V202
				c0-1.2-0.6-1.7-1.7-1.7h-5.6c-1.1,0-1.7,0.6-1.7,1.7v9.2c0,1.1-0.6,1.7-1.7,1.7h-6.5c-1.1,0-1.7-0.6-1.7-1.7V174
				c0-1.2,0.6-1.7,1.7-1.7H115z"/>
			<path class="st3" d="M167.7,172.3c1.2,0,1.7,0.6,1.7,1.7v6.5c0,1.1-0.6,1.7-1.7,1.7h-14c-1.1,0-1.7,0.6-1.7,1.7v1.9
				c0,1.1,0.6,1.7,1.7,1.7h9c1.2,0,1.7,0.6,1.7,1.7v6.5c0,1.1-0.6,1.7-1.7,1.7h-9c-1.1,0-1.7,0.6-1.7,1.7v1.9c0,1.1,0.6,1.7,1.7,1.7
				h14c1.2,0,1.7,0.6,1.7,1.7v6.5c0,1.2-0.6,1.7-1.7,1.7h-24.4c-1.1,0-1.7-0.6-1.7-1.7V174c0-1.2,0.6-1.7,1.7-1.7H167.7z"/>
		</g>
		<path class="st4" d="M46.9,65.4c-1.8-0.1-3.2-0.4-5.2-0.8V75h13V65C51.7,65.5,49.5,65.6,46.9,65.4z"/>
		<path class="st4" d="M150.7,14.5V75h14V24.1C160.7,20.4,155.7,17,150.7,14.5z"/>
		<path class="st4" d="M133.2,10c-0.3,0-0.5,0-1.5,0v65h14V12.4C141.7,11,137.4,10.1,133.2,10z"/>
		<path class="st4" d="M113.7,15.1V75h14V10.3C122.7,11,117.7,12.6,113.7,15.1z"/>
		<path class="st4" d="M59.7,63.7V75h13V55.8C68.7,59.5,63.7,62.1,59.7,63.7z"/>
		<path class="st4" d="M88.2,39.5c-3.4,4.6-7.5,8.6-10.5,12V75h14V35.3C89.7,36.6,89.3,38.1,88.2,39.5z"/>
		<path class="st4" d="M22.7,53.9v21h14V63C31.7,60.9,27.7,57.8,22.7,53.9z"/>
		<path class="st4" d="M5.7,31.5V75h13V49.1C13.7,43.6,8.7,37.4,5.7,31.5z"/>
		<path class="st4" d="M95.7,29.7V75h13V18.1C104.7,21.1,100.7,25,95.7,29.7z"/>
		<path class="st3" d="M3.3,10.5c-0.7-1.3-2.8-0.8-2.8,0.7v9.2v2.9v50.6c0,0.8,0.7,1.5,1.5,1.5h2c0.8,0,1.5-0.7,1.5-1.5V37
			c0-1.5,1.9-2.1,2.7-0.8c2.8,4.3,6.3,8.6,9.9,12.5c0.2,0.3,0.4,0.6,0.4,1v24.2c0,0.8,0.7,1.5,1.5,1.5h1c0.8,0,1.5-0.7,1.5-1.5V57
			c0-1.2,1.4-1.9,2.4-1.2c3.7,2.8,6.9,5.1,10.7,6.8c0.5,0.2,0.9,0.8,0.9,1.4v9.9c0,0.8,0.7,1.5,1.5,1.5h2c0.8,0,1.5-0.7,1.5-1.5
			v-7.5c0-0.9,0.9-1.6,1.8-1.5c1.2,0.2,2.2,0.4,3.4,0.5c2.1,0.2,3.9,0.1,6.1-0.2c0.9-0.1,1.7,0.6,1.7,1.5v7.2c0,0.8,0.7,1.5,1.5,1.5
			h2c0.8,0,1.5-0.7,1.5-1.5v-9.2c0-0.6,0.4-1.1,0.9-1.4c3-1.3,6.5-3.1,9.7-5.5c1-0.7,2.4,0,2.4,1.2v14.9c0,0.8,0.7,1.5,1.5,1.5h2
			c0.8,0,1.5-0.7,1.5-1.5V52.1c0-0.4,0.1-0.7,0.4-1c3-3.3,6.9-7.2,10.1-11.6c0.3-0.4,0.5-0.7,0.7-1.1c0.8-1.3,2.8-0.7,2.8,0.8v34.7
			c0,0.8,0.7,1.5,1.5,1.5h1c0.8,0,1.5-0.7,1.5-1.5V30.3c0-0.4,0.2-0.8,0.5-1.1c3.8-3.5,7-6.6,10.1-9.2c1-0.8,2.5-0.1,2.5,1.1v52.7
			c0,0.8,0.7,1.5,1.5,1.5h2c0.8,0,1.5-0.7,1.5-1.5V16c0-0.5,0.3-1,0.7-1.3c3.4-2,7.4-3.3,11.5-4.1c0.9-0.2,1.8,0.5,1.8,1.5v61.8
			c0,0.8,0.7,1.5,1.5,1.5h1c0.8,0,1.5-0.7,1.5-1.5V11.5c0-0.8,0.7-1.5,1.5-1.5c0,0,0,0,0,0c3.8,0.1,7.7,0.8,11.4,2
			c0.6,0.2,1,0.8,1,1.4v60.5c0,0.8,0.7,1.5,1.5,1.5h2c0.8,0,1.5-0.7,1.5-1.5V17c0-1.1,1.2-1.9,2.2-1.3c4,2.2,8,5,11.3,8
			c0.3,0.3,0.5,0.7,0.5,1.1v49.1c0,0.8,0.7,1.5,1.5,1.5h1c0.8,0,1.5-0.7,1.5-1.5V39.2V28.8v-6.4v-4.3c0-0.4-0.2-0.8-0.5-1.1
			c-8.9-8.2-20.7-14.9-34-15.2C116,1.3,98.7,12.4,82.2,34.7c-11.7,15.8-23.1,23.4-34,22.6C28,55.8,12.4,26.7,4.8,12.5L3.3,10.5z"/>
		<path class="st3" d="M87.9,24.7l14.3-13.6c0.2-0.2,0.3-0.4,0.3-0.7c0-1.7-0.5-3.2-1.5-4.2c-2.4-2.5-7-2.3-11.5,0.5
			C89.2,7,89,7.6,89.3,8c1.1,2.2,0.1,5.4-2.3,7.9l-6.1-2c-0.8-0.3-1.6,0.2-1.9,0.9c-0.3,0.8,0.2,1.6,0.9,1.9l4.1,1.3
			c-0.6,0.3-1.2,0.5-1.8,0.7c-0.5,0.1-0.8,0.6-0.7,1c0.1,1.4,0.6,2.5,1.5,3.4c1,1.1,2.4,1.7,4.1,1.7C87.5,25,87.7,24.9,87.9,24.7z"
			/>
	</g>
</g>
<g id="Wall_clock">
</g>
<g id="Roller_Coster">
</g>
<g id="Roller_coaster_1_">
</g>
<g id="Roller_Coaster">
</g>
<g id="Roller_coaster_2_">
</g>
</svg>
